<?xml version="1.0" encoding="utf-8"?>
<?xml-stylesheet type="text/xsl" href="rss1.xsl"?>
<rss version="2.0" xmlns:atom="http://www.w3.org/2005/Atom" xmlns:content="http://purl.org/rss/1.0/modules/content/" xmlns:dc="http://purl.org/dc/elements/1.1/" xmlns:media="http://search.yahoo.com/mrss/">
<channel>
 <title>Getty</title>
 <link>http://www.gettyimg.com/</link>
 <atom:link href="http://www.gettyimg.com/" rel="self" type="application/rss+xml" />

 
                <item>
                <title><![CDATA[【HD Live Performances】WEB-DL - Lady Gaga Lady Gaga Presents The Monster Ball Tour At Madison Square Garden 2011 1080p AMZN WEB-DL DDP2.0 H.264-SiGLA]]></title>
                <link><![CDATA[https://sharemania.us/threads/lady-gaga-lady-gaga-presents-the-monster-ball-tour-at-madison-square-garden-2011-1080p-amzn-web-dl-ddp2-0-h-264-sigla.243254/]]></link>
                <description><![CDATA[<article>
<blockquote class="messageText SelectQuoteContainer ugc baseHtml">
<div style="text-align: center"><img src="https://ptpimg.me/y05zou.jpg" class="bbCodeImage LbImage" alt="[​IMG]" data-url="https://ptpimg.me/y05zou.jpg" style="">​</div><br>
<div style="text-align: left">
<div class="bbCodeBlock bbCodeCode">
<div class="type">Code:</div>
<pre>General
Unique ID                                : 193086869742122579070563216827538847572 (0x91432DAD9DF39EA8592B64BD2C31B754)
Complete name                            : Lady.Gaga.Lady.Gaga.Presents.The.Monster.Ball.Tour.At.Madison.Square.Garden.2011.1080p.AMZN.WEB-DL.DDP2.0.H.264-SiGLA.mkv
Format                                   : Matroska
Format version                           : Version 4
File size                                : 8.23 GiB
Duration                                 : 2 h 10 min
Overall bit rate mode                    : Constant
Overall bit rate                         : 9 019 kb/s
Movie name                               : Lady.Gaga.-.Lady.Gaga.Presents.The.Monster.Ball.Tour.At.Madison.Square.Garden.2011.1080p.AMZN.WEB-DL.DDP2.0.H.264-SiGLA
Writing application                      : mkvmerge v62.0.0 ('SiGLA') 64-bit
Writing library                          : libebml v1.4.2 + libmatroska v1.6.4

Video
ID                                       : 1
Format                                   : AVC
Format/Info                              : Advanced Video Codec
Format profile                           : High@L4
Format settings                          : CABAC / 4 Ref Frames
Format settings, CABAC                   : Yes
Format settings, Reference frames        : 4 frames
Codec ID                                 : V_MPEG4/ISO/AVC
Duration                                 : 2 h 10 min
Bit rate mode                            : Constant
Bit rate                                 : 8 793 kb/s
Nominal bit rate                         : 10 000 kb/s
Width                                    : 1 920 pixels
Height                                   : 1 080 pixels
Display aspect ratio                     : 16:9
Frame rate mode                          : Constant
Frame rate                               : 25.000 FPS
Color space                              : YUV
Chroma subsampling                       : 4:2:0
Bit depth                                : 8 bits
Scan type                                : Progressive
Bits/(Pixel*Frame)                       : 0.170
Stream size                              : 8.02 GiB (97%)
Default                                  : Yes
Forced                                   : No
Color range                              : Limited
Color primaries                          : BT.709
Transfer characteristics                 : BT.709
Matrix coefficients                      : BT.709

Audio
ID                                       : 2
Format                                   : E-AC-3
Format/Info                              : Enhanced AC-3
Commercial name                          : Dolby Digital Plus
Codec ID                                 : A_EAC3
Duration                                 : 2 h 10 min
Bit rate mode                            : Constant
Bit rate                                 : 224 kb/s
Channel(s)                               : 2 channels
Channel layout                           : L R
Sampling rate                            : 48.0 kHz
Frame rate                               : 31.250 FPS (1536 SPF)
Compression mode                         : Lossy
Stream size                              : 209 MiB (2%)
Title                                    : English
Language                                 : English
Service kind                             : Complete Main
Default                                  : Yes
Forced                                   : No
</pre>
</div></div><br>
<div class="bbCodeBlock bbCodeVfcHH HiddenContent">
<div class="attribution type">Hidden Content:</div>
<blockquote>You must either reply or click 'Like' to see the hidden information contained here.</blockquote>
</div>
<div class="messageTextEndMarker">&nbsp;</div>
</blockquote>
</article>]]></description>
                <author><![CDATA[-C.A.A]]></author>
                </item>

                </channel></rss>